<?xml version="1.0" encoding="UTF-8" standalone="no"?>
<!-- Created with Inkscape (http://www.inkscape.org/) -->

<svg
   xmlns:dc="http://purl.org/dc/elements/1.1/"
   xmlns:cc="http://creativecommons.org/ns#"
   xmlns:rdf="http://www.w3.org/1999/02/22-rdf-syntax-ns#"
   xmlns:svg="http://www.w3.org/2000/svg"
   xmlns="http://www.w3.org/2000/svg"
   xmlns:sodipodi="http://sodipodi.sourceforge.net/DTD/sodipodi-0.dtd"
   xmlns:inkscape="http://www.inkscape.org/namespaces/inkscape"
   width="570.14807"
   height="168.19283"
   id="svg2"
   version="1.1"
   inkscape:version="0.47 r22583"
   sodipodi:docname="nottingham.svg">
  <defs
     id="defs4">
    <inkscape:perspective
       sodipodi:type="inkscape:persp3d"
       inkscape:vp_x="0 : 526.18109 : 1"
       inkscape:vp_y="0 : 1000 : 0"
       inkscape:vp_z="744.09448 : 526.18109 : 1"
       inkscape:persp3d-origin="372.04724 : 350.78739 : 1"
       id="perspective10" />
    <inkscape:perspective
       id="perspective2824"
       inkscape:persp3d-origin="0.5 : 0.33333333 : 1"
       inkscape:vp_z="1 : 0.5 : 1"
       inkscape:vp_y="0 : 1000 : 0"
       inkscape:vp_x="0 : 0.5 : 1"
       sodipodi:type="inkscape:persp3d" />
  </defs>
  <sodipodi:namedview
     id="base"
     pagecolor="#ffffff"
     bordercolor="#666666"
     borderopacity="1.0"
     inkscape:pageopacity="0.0"
     inkscape:pageshadow="2"
     inkscape:zoom="0.7"
     inkscape:cx="102.89295"
     inkscape:cy="302.1619"
     inkscape:document-units="px"
     inkscape:current-layer="layer1"
     showgrid="false"
     inkscape:window-width="1680"
     inkscape:window-height="976"
     inkscape:window-x="0"
     inkscape:window-y="25"
     inkscape:window-maximized="1" />
  <metadata
     id="metadata7">
    <rdf:RDF>
      <cc:Work
         rdf:about="">
        <dc:format>image/svg+xml</dc:format>
        <dc:type
           rdf:resource="http://purl.org/dc/dcmitype/StillImage" />
        <dc:title />
      </cc:Work>
    </rdf:RDF>
  </metadata>
  <g
     inkscape:label="Layer 1"
     inkscape:groupmode="layer"
     id="layer1"
     transform="translate(-82.222524,-805.85508)">
    <path
       style="fill:#0d6f8c;fill-opacity:1"
       d="m 230.43859,889.9515 c 0,-83.77421 0.004,-84.09642 0.96663,-84.09642 0.96292,0 0.96662,0.32221 0.96662,84.09642 0,83.77417 -0.004,84.0964 -0.96662,84.0964 -0.96293,0 -0.96663,-0.32223 -0.96663,-84.0964 z m -76.12176,74.71458 c -5.0415,-0.97552 -8.8153,-2.38268 -17.64091,-6.57798 -10.02279,-4.76435 -13.77871,-5.81179 -21.99073,-6.13271 -9.99261,-0.39052 -17.762041,1.32911 -27.307171,6.04402 -2.52531,1.24738 -4.79892,2.35663 -5.05248,2.46499 -0.73973,0.31609 2.65411,-3.80468 5.39159,-6.54647 7.47404,-7.48574 16.048251,-10.79228 28.002121,-10.79865 10.56149,-0.006 17.36098,1.71728 29.75886,7.54054 9.29779,4.36717 13.35005,5.75495 18.98829,6.50302 9.8606,1.30833 19.74933,-0.94362 26.99181,-6.14682 l 2.47111,-1.7753 -2.02993,2.42454 c -4.5558,5.44138 -11.13075,9.90559 -17.76673,12.0631 -4.76032,1.54771 -14.32452,2.00028 -19.81583,0.93772 z m 327.68604,-5.319 c -3.40795,-0.78171 -7.108,-2.20226 -6.90731,-2.65194 0.0775,-0.17365 0.66356,-1.54384 1.30232,-3.04482 l 1.16139,-2.72902 2.46345,1.02317 c 1.9576,0.81308 3.51256,1.02892 7.57245,1.05125 4.74672,0.0261 5.24685,-0.0631 7.05332,-1.25792 2.37252,-1.56917 3.5631,-3.94018 3.91231,-7.79132 0.26289,-2.89927 0.25797,-2.91336 -0.89711,-2.56647 -0.63879,0.19185 -2.82784,0.58813 -4.86455,0.88065 -11.64022,1.67175 -19.38696,-5.92478 -20.0748,-19.68555 -0.7751,-15.50648 6.94536,-24.46373 21.02265,-24.39043 3.87367,0.0202 9.78358,1.01923 12.32203,2.08303 l 1.83377,0.76849 -0.14218,23.81889 -0.14217,23.8189 -1.15404,2.32415 c -1.66731,3.35787 -4.8787,6.35822 -8.15521,7.61928 -3.51849,1.3542 -11.94052,1.73108 -16.30632,0.72966 z m 15.34518,-23.99561 1.32911,-0.60705 0,-14.88648 0,-14.88649 -2.04908,-0.55176 c -1.12699,-0.30347 -2.97941,-0.42424 -4.11649,-0.26839 -6.19428,0.84902 -9.16736,5.35884 -9.65913,14.65178 -0.38418,7.25996 0.9527,12.84969 3.65845,15.29666 2.38582,2.15763 7.54822,2.7539 10.83714,1.25173 z m -352.93913,8.52096 c -14.22723,-7.30259 -30.3804,-8.03119 -42.59009,-1.92106 l -2.233481,1.11771 -1.02888,-1.09519 c -0.99279,-1.05678 -1.02888,-1.51754 -1.02888,-13.13474 l 0,-12.03954 3.225701,-3.25062 3.22572,-3.25061 1.19342,-20.12298 1.19343,-20.12298 -4.17748,-4.19692 -4.177481,-4.19692 0,-17.98307 0,-17.98306 4.470641,-2.1636 c 4.33797,-2.0994 10.82472,-4.63431 13.53276,-5.28836 l 1.32911,-0.32101 0,8.38663 c 0,4.61265 0.12112,8.50774 0.26915,8.65578 0.14803,0.14803 1.3986,-0.0149 2.77905,-0.36205 1.38044,-0.34715 4.0867,-0.88665 6.01391,-1.19889 l 3.50402,-0.56769 0,-8.64676 0,-8.64675 1.32911,-0.35371 c 1.82058,-0.48451 20.60104,-0.48257 23.44067,0.002 l 2.29573,0.3921 0,9.1685 c 0,6.91824 0.14828,9.21191 0.60415,9.34539 0.33227,0.0973 2.95618,0.53802 5.8309,0.97938 5.76637,0.88534 12.59404,2.78644 19.49836,5.42914 l 4.5153,1.7283 0,10.81922 0,10.81922 -3.44878,3.25381 c -5.02827,4.74402 -4.70462,4.59797 -7.81656,3.5273 -5.77947,-1.98843 -10.43115,-2.64825 -18.81984,-2.66952 -5.06945,-0.0128 -8.08959,-0.20114 -8.08145,-0.50384 0.007,-0.26582 0.65779,-2.76696 1.44587,-5.55809 0.78809,-2.79113 1.42944,-5.29228 1.42521,-5.5581 -0.004,-0.26582 -1.84845,2.34407 -4.09827,5.79975 l -4.09057,6.28307 -0.007,20.99402 -0.007,20.99403 2.17491,2.76831 2.1749,2.76831 0,14.78186 c 0,8.13002 -0.16311,14.77115 -0.36248,14.75808 -0.19937,-0.0131 -1.77617,-0.74939 -3.50402,-1.63626 z m -17.88257,-39.60871 c 0,-1.96368 -0.23014,-9.0865 -0.51142,-15.82849 -0.56966,-13.65375 -0.75938,-14.4386 -3.48705,-14.42565 -3.36358,0.0159 -3.574,0.76587 -3.93082,14.00866 -0.16831,6.24682 -0.43358,13.2609 -0.58949,15.58684 l -0.28346,4.22899 4.40112,0 4.40112,0 0,-3.57035 z m 441.32291,38.79066 c -5.41541,-0.89947 -9.54893,-3.74544 -11.48809,-7.90963 -1.27662,-2.74141 -1.56765,-8.50201 -0.57645,-11.41007 2.33851,-6.86094 9.14572,-10.46093 18.89303,-9.99156 l 4.71263,0.22693 0,-2.11689 c 0,-5.40183 -3.04124,-7.70337 -9.62435,-7.28345 -2.01672,0.12865 -5.04042,0.72015 -6.71936,1.31446 -1.67894,0.59431 -3.10798,1.0043 -3.17566,0.91109 -0.0677,-0.0932 -0.58006,-1.39502 -1.13863,-2.89291 l -1.01559,-2.72344 3.09772,-1.01691 c 7.02422,-2.30589 15.40409,-2.53007 19.92548,-0.53304 2.73999,1.2102 5.13205,3.4136 6.54656,6.0302 1.00351,1.85624 1.05092,2.58613 1.19016,18.32238 0.11551,13.04563 0.0169,16.47047 -0.48331,16.78783 -1.97602,1.2538 -10.94732,2.88171 -15.28356,2.77334 -1.24342,-0.0311 -3.4307,-0.25082 -4.86058,-0.48833 z m 10.09119,-5.73035 1.20828,-0.31828 0.1316,-8.74997 0.13156,-8.74996 -2.69031,-0.33614 c -8.00366,-0.99998 -12.13773,2.55667 -11.7561,10.11405 0.14934,2.95742 0.39641,3.81672 1.52147,5.29178 2.53739,3.32668 6.05451,4.17069 11.4535,2.74852 z m -242.92096,5.14038 c -8.89945,-2.27077 -13.4069,-9.60759 -13.4069,-21.82256 0,-8.64775 2.02724,-14.293 6.61343,-18.41638 4.57801,-4.11603 12.9216,-5.25145 19.09009,-2.59785 3.34164,1.43754 7.27329,5.68585 8.69128,9.39126 3.11529,8.14077 2.40568,20.02005 -1.57232,26.32162 -1.67198,2.64858 -5.30479,5.6555 -7.90741,6.54504 -3.13787,1.07248 -8.51384,1.3429 -11.50817,0.57887 z m 8.95575,-6.4925 c 3.22186,-2.40125 4.60024,-7.99867 4.25113,-17.26331 -0.35924,-9.53364 -2.49317,-13.98987 -6.98794,-14.59274 -5.75631,-0.77209 -8.82085,4.94448 -8.82085,16.45434 0,8.77176 1.41628,13.36128 4.84048,15.68579 1.98021,1.34426 4.68588,1.22984 6.71718,-0.28408 z m 28.38198,5.95271 c -1.02681,-0.36604 -2.51428,-1.28083 -3.30552,-2.03286 -3.02469,-2.87486 -3.02149,-2.85585 -3.28555,-19.49156 l -0.24165,-15.22435 -2.29574,-0.14731 -2.29573,-0.14731 0,-2.84692 0,-2.84691 2.29573,-0.14731 2.29574,-0.14731 0.13755,-4.36377 0.13755,-4.36377 4.21226,-1.14908 c 2.31675,-0.632 4.48413,-1.24709 4.81641,-1.36687 0.46204,-0.16655 0.60414,1.15858 0.60414,5.63369 l 0,5.85146 3.38319,0 3.38319,0 0,2.89987 0,2.89988 -3.38319,0 -3.38319,0 0,14.15018 c 0,15.76205 0.0184,15.85781 3.21223,16.73968 0.95359,0.2633 2.36086,0.35331 3.12728,0.20002 l 1.39349,-0.27869 0,3.14558 c 0,2.85352 -0.10096,3.17263 -1.08745,3.437 -1.9468,0.52172 -7.80802,0.27852 -9.72074,-0.40334 z m 25.61557,0 c -1.0268,-0.36604 -2.51428,-1.28083 -3.30551,-2.03286 -3.0247,-2.87486 -3.02149,-2.85585 -3.28555,-19.49156 l -0.24166,-15.22435 -2.29573,-0.14731 -2.29574,-0.14731 0,-2.84692 0,-2.84691 2.29574,-0.14731 2.29573,-0.14731 0.13755,-4.36377 0.13755,-4.36377 4.21227,-1.14908 c 2.31674,-0.632 4.48413,-1.24709 4.8164,-1.36687 0.46204,-0.16655 0.60414,1.15858 0.60414,5.63369 l 0,5.85146 3.38319,0 3.38319,0 0,2.89987 0,2.89988 -3.38319,0 -3.38319,0 0,14.15018 c 0,15.87087 -10e-6,15.87083 3.38278,16.78172 1.0436,0.28102 2.44932,0.37242 3.12384,0.20313 1.21864,-0.30586 1.22639,-0.28799 1.22639,2.82975 0,2.84521 -0.10133,3.16472 -1.08746,3.42899 -1.9468,0.52172 -7.80802,0.27852 -9.72074,-0.40334 z m -124.03606,-27.32417 0,-27.54883 4.95401,0 4.95401,0 9.42455,16.01032 c 5.1835,8.80569 10.18576,17.5003 11.11614,19.32138 l 1.69159,3.31105 -0.16338,-19.32138 -0.16338,-19.32137 4.87568,0 4.87568,0 0,27.56696 0,27.56696 -4.38595,-0.13896 -4.38594,-0.13897 -10.89611,-18.36588 c -5.99285,-10.10124 -11.29739,-19.29022 -11.78785,-20.41996 -0.49046,-1.12975 -0.95386,-2.0542 -1.02975,-2.05434 -0.0759,-1.5e-4 -0.0707,9.24321 0.0115,20.54079 l 0.14944,20.54105 -4.62009,0 -4.6201,0 0,-27.54882 z m 141.61064,6.0414 0,-21.50741 4.83312,0 4.83313,0 0,21.50741 0,21.50742 -4.83313,0 -4.83312,0 0,-21.50742 z m 16.91594,1.24301 0,-20.26441 2.69206,-1.00723 c 4.35307,-1.62869 10.99621,-2.58933 15.91548,-2.30147 5.50414,0.32207 9.1754,1.65383 11.80318,4.28162 3.24711,3.2471 3.42117,4.42805 3.42117,23.21099 l 0,16.34491 -4.83312,0 -4.83313,0 -9.7e-4,-16.3118 c -9.6e-4,-18.26175 -0.0766,-18.72398 -3.38244,-20.64518 -1.91414,-1.1124 -7.42326,-1.30407 -9.78708,-0.3405 l -1.32911,0.54179 0,18.37785 0,18.37784 -4.83313,0 -4.83312,0 0,-20.26441 z m 83.12979,-8.73435 0,-28.99877 4.83313,0 4.83313,0 0,7.97466 c 0,4.38607 0.0981,7.97466 0.21807,7.97466 0.11995,0 1.47058,-0.32623 3.00142,-0.72497 3.54631,-0.92369 9.44978,-0.93024 12.52128,-0.0139 2.94918,0.87987 5.69746,3.09849 7.10978,5.73956 1.04381,1.95194 1.07738,2.49078 1.21676,19.52741 l 0.14334,17.52009 -4.85564,0 -4.85563,0 0,-16.36116 c 0,-16.23061 -0.009,-16.37421 -1.10196,-17.99636 -0.60608,-0.89936 -1.63916,-1.90702 -2.29574,-2.23925 -1.82755,-0.92475 -6.66673,-0.74542 -9.0476,0.3353 l -2.05408,0.93238 0,17.66455 0,17.66454 -4.83313,0 -4.83313,0 0,-28.99876 z m 80.82879,8.62482 0.1261,-20.37394 2.65822,-0.92926 c 8.40374,-2.93779 18.24616,-3.0105 23.75308,-0.17547 l 2.24566,1.1561 2.34581,-1.15673 c 7.12707,-3.51438 17.40399,-2.44591 21.647,2.25058 2.94999,3.26529 3.17285,4.89888 3.17285,23.25775 l 0,16.34491 -4.83313,0 -4.83313,0 0,-16.23876 c 0,-17.98806 -0.11111,-18.7239 -3.10287,-20.54826 -1.97989,-1.20734 -6.66323,-1.20386 -8.93558,0.007 l -1.64722,0.8775 0.11121,17.95144 0.11121,17.95144 -4.86788,0 -4.86788,0 0,-16.18119 c 0,-18.0985 -0.18607,-19.36171 -3.08063,-20.91534 -1.76564,-0.94771 -7.07034,-1.07251 -9.12302,-0.21464 l -1.32911,0.55548 0,18.37785 0,18.37784 -4.83839,0 -4.83835,0 0.12605,-20.37394 z M 158.90883,905.29668 c 2.9e-4,-1.12975 0.22858,-8.24738 0.50732,-15.81697 0.42221,-11.46616 0.63626,-13.90594 1.28266,-14.62021 0.92794,-1.02535 2.98795,-1.11562 4.25846,-0.18659 0.98227,0.71824 1.02861,1.304 1.90685,24.09904 l 0.33052,8.5788 -4.14316,0 -4.14317,0 4.8e-4,-2.05407 z M 417.37194,892.5813 c -1.70186,-0.92357 -2.30789,-2.10635 -2.30789,-4.50433 0,-1.35194 0.35277,-2.34819 1.16644,-3.29414 1.03935,-1.20831 1.48548,-1.35606 4.09473,-1.35606 3.27783,0 4.58067,0.83652 5.29651,3.40073 1.27948,4.58329 -3.83439,8.14995 -8.24979,5.7538 z m 115.94145,-16.94791 c -1.75368,-0.53875 -2.266,-0.90355 -2.05202,-1.46117 0.15685,-0.40874 0.41983,-1.27965 0.5844,-1.93537 0.20634,-0.82211 0.53128,-1.10315 1.04676,-0.90535 5.92524,2.27373 10.48459,0.85417 11.06165,-3.44406 l 0.24971,-1.85992 -5.11332,0 -5.11332,0 -1.82155,-1.81945 -1.82156,-1.81945 -0.14746,-10.3842 -0.14747,-10.3842 3.16817,0 3.16817,0 0,9.20492 c 0,9.12869 0.01,9.21473 1.18632,10.39121 1.26853,1.26854 3.17528,1.52542 5.30694,0.71497 l 1.23974,-0.47135 0,-9.91987 0,-9.91988 3.14154,0 3.14153,0 -0.003,13.17027 c -10e-4,8.11757 -0.20744,13.90778 -0.53638,15.09263 -0.68397,2.46369 -3.53286,5.31257 -5.99654,5.99654 -2.6479,0.73512 -7.73495,0.61629 -10.54262,-0.24627 z M 322.36647,865.7239 c -3.94703,-1.95374 -5.84302,-5.69526 -5.877,-11.59761 -0.0484,-8.41438 3.60665,-12.70263 10.85332,-12.73337 6.51497,-0.0276 9.99929,3.62922 10.69316,11.22267 l 0.32019,3.50401 -7.80241,0 c -8.65302,0 -8.55634,-0.0433 -7.04009,3.15198 1.38097,2.91019 5.00766,3.8211 9.65037,2.42384 1.2925,-0.38898 2.37915,-0.66084 2.41478,-0.60414 0.0356,0.0567 0.4218,1.02038 0.85815,2.14149 l 0.79338,2.03839 -2.4941,0.74066 c -3.77127,1.11995 -9.80945,0.97941 -12.36975,-0.28792 z m 9.56779,-15.09092 c 0,-2.04012 -1.76442,-4.69418 -3.50343,-5.26991 -2.19664,-0.72722 -4.80204,0.85001 -5.60717,3.39441 -1.0404,3.28792 -0.77279,3.49562 4.50397,3.49562 l 4.60663,0 0,-1.62012 z m 25.37392,15.22696 c -2.46964,-1.17375 -4.48069,-3.31905 -5.0843,-5.42371 -0.26059,-0.90861 -0.4738,-7.03636 -0.4738,-13.61721 l 0,-11.96518 3.38319,0 3.38319,0 0,12.12 0,12.12 1.41276,1.41276 c 0.84431,0.84431 1.92355,1.41276 2.68223,1.41276 1.60858,0 3.91272,-1.17581 4.30442,-2.19656 0.16512,-0.43031 0.30022,-6.20186 0.30022,-12.82567 l 0,-12.04329 3.40538,0 3.40538,0 -0.14302,12.96521 -0.14302,12.9652 -1.28597,1.94196 c -1.81294,2.7377 -4.12353,3.72899 -9.10525,3.90632 -3.25452,0.11584 -4.50987,-0.0447 -6.04141,-0.77259 z m 87.38749,-0.33174 c -4.03214,-2.0093 -5.9412,-5.73862 -5.94659,-11.61661 -0.008,-9.03881 5.9315,-14.31345 13.87115,-12.31779 4.85083,1.21928 7.26522,4.61544 7.73951,10.88665 l 0.27523,3.63915 -7.80276,0 c -8.7037,0 -8.8022,0.0465 -6.8557,3.2389 1.79106,2.93745 4.9314,3.70678 9.48817,2.32443 1.3049,-0.39585 2.40648,-0.72209 2.44795,-0.72497 0.0415,-0.003 0.404,0.95919 0.80564,2.13793 l 0.73025,2.14315 -2.22085,0.75673 c -1.29853,0.44245 -3.85181,0.75671 -6.14802,0.75671 -3.23387,0 -4.36089,-0.21613 -6.38398,-1.22428 z m 9.39508,-15.46962 c -0.40943,-3.6324 -2.9444,-5.55382 -5.99779,-4.5461 -0.94368,0.31143 -1.90313,1.08093 -2.27792,1.82692 -0.80058,1.59346 -1.3247,4.21349 -0.9232,4.61499 0.16429,0.16429 2.35691,0.29871 4.87248,0.29871 l 4.57378,0 -0.24735,-2.19452 z m 28.15377,16.3447 c -0.39873,-0.1501 -1.20599,-0.45061 -1.7939,-0.66781 -0.97007,-0.35839 -1.01985,-0.54196 -0.53818,-1.98469 0.7685,-2.30185 0.8838,-2.35007 3.66815,-1.53386 3.23531,0.9484 5.74627,0.29584 6.22667,-1.61821 0.45278,-1.80404 -0.22142,-2.57612 -3.97221,-4.54886 -4.19006,-2.20378 -5.52445,-3.98529 -5.52197,-7.37224 0.003,-4.88562 2.7648,-7.26484 8.45617,-7.28629 3.00434,-0.0113 6.52472,0.84241 6.52472,1.58233 0,0.14825 -0.26579,1.00456 -0.59064,1.90292 -0.48267,1.33481 -0.7698,1.5733 -1.57077,1.30467 -1.96029,-0.65744 -5.00981,-0.77052 -6.03163,-0.22366 -0.79869,0.42744 -1.01108,0.92419 -0.8973,2.09865 0.13198,1.36239 0.50397,1.71331 3.24733,3.06337 3.93497,1.93648 5.68861,3.59837 6.33669,6.00515 1.00195,3.72094 -0.78822,7.54242 -4.20127,8.96848 -1.5448,0.64547 -7.89123,0.85609 -9.34186,0.31005 z m 35.43697,-0.41985 c -2.63745,-1.319 -3.05501,-2.95791 -3.05501,-11.99095 l 0,-8.02244 -1.44994,0 c -1.39624,0 -1.44994,-0.0806 -1.44994,-2.17491 0,-2.09435 0.0537,-2.17491 1.44994,-2.17491 1.43141,0 1.44994,-0.0333 1.44994,-2.60084 l 0,-2.60084 2.29573,-0.56255 c 1.26266,-0.3094 2.67635,-0.67611 3.14154,-0.81492 0.74954,-0.22364 0.84579,0.13636 0.84579,3.16339 l 0,3.41576 1.93325,0 1.93326,0 0,2.17491 0,2.17491 -1.93326,0 -1.93325,0 0,7.45682 c 0,8.36937 0.21646,8.97581 3.20385,8.97581 1.68329,0 1.68472,0.002 1.53624,2.05408 l -0.14862,2.05408 -3.14153,0.12049 c -2.11449,0.0811 -3.64384,-0.1307 -4.67799,-0.64789 z m 51.79199,0.11962 c -4.88993,-2.21144 -7.40963,-10.49947 -5.32268,-17.5079 2.80356,-9.41502 16.38653,-9.94812 19.92366,-0.78196 0.61134,1.58426 0.87402,3.57625 0.87402,6.62788 0,3.70754 -0.18182,4.71616 -1.21046,6.71485 -0.66571,1.29358 -2.04509,3.02763 -3.06517,3.85343 -1.69265,1.37025 -2.19936,1.51249 -5.79762,1.62748 -2.54977,0.0815 -4.45827,-0.1071 -5.40175,-0.53378 z m 6.52342,-3.69487 c 1.67782,-0.89793 2.53904,-4.31839 2.35427,-9.35013 -0.19894,-5.41608 -1.10766,-7.22204 -3.76607,-7.48449 -3.04985,-0.3011 -4.50487,2.48073 -4.50487,8.61279 0,2.03955 0.26278,4.50441 0.58389,5.47748 0.90694,2.74804 3.15971,3.90735 5.33278,2.74435 z m -300.61023,-9.43011 0,-13.2911 -3.14153,0 -3.14153,0 0,-2.41656 0,-2.41657 9.90791,0 9.90791,0 0,2.39449 0,2.39448 -3.26236,0.14291 -3.26236,0.14291 -0.1286,13.17027 -0.12859,13.17027 -3.37542,0 -3.37543,0 0,-13.2911 z m 16.91595,-3.62484 0,-16.91595 3.38319,0 3.38319,0 0,4.84233 0,4.84234 1.32911,-0.37169 c 2.53201,-0.70809 7.07686,-0.39067 8.7929,0.61411 3.5037,2.05151 3.63472,2.52589 3.80822,13.78931 l 0.15582,10.11549 -3.41818,0 -3.41818,0 0,-9.63885 c 0,-9.41262 -0.0252,-9.65651 -1.07417,-10.39122 -1.10734,-0.77562 -3.18304,-0.95828 -5.08807,-0.44775 -1.08371,0.29042 -1.08745,0.32616 -1.08745,10.38462 l 0,10.0932 -3.38319,0 -3.38319,0 0,-16.91594 z m 86.51298,5.35528 0,-11.56067 2.53739,-0.85584 c 1.68625,-0.56875 4.08145,-0.86549 7.14049,-0.88463 5.47821,-0.0343 7.84508,0.81338 9.65986,3.45952 1.16965,1.70546 1.20739,2.02692 1.3595,11.57822 l 0.15646,9.82406 -3.41882,0 -3.41881,0 0,-9.4246 c 0,-8.85756 -0.0596,-9.48422 -0.99104,-10.41563 -0.79413,-0.79413 -1.49033,-0.96218 -3.50402,-0.8458 l -2.51298,0.14524 -0.13044,10.2704 -0.13044,10.27039 -3.37358,0 -3.37357,0 0,-11.56066 z m 25.61557,-0.76381 0,-12.32448 3.14154,0 3.14153,0 0,12.32448 0,12.32447 -3.14153,0 -3.14154,0 0,-12.32447 z m 18.12934,11.74256 c -1.93883,-5.43901 -7.97977,-23.3444 -7.97977,-23.65208 0,-0.22822 1.51221,-0.41496 3.36048,-0.41496 l 3.36046,0 0.42927,1.57077 c 0.23609,0.86392 1.2599,4.66129 2.27513,8.43859 1.01523,3.77731 2.02849,6.75497 2.25168,6.61703 0.22319,-0.13794 0.41404,-0.61858 0.42411,-1.06808 0.0101,-0.4495 0.94586,-4.07963 2.07953,-8.06696 l 2.06122,-7.24969 3.27678,-0.14382 c 2.96812,-0.13027 3.25065,-0.062 2.99945,0.72497 -0.15253,0.47783 -1.98269,5.97982 -4.06702,12.22664 l -3.78968,11.35785 -3.22918,0.14306 c -2.31248,0.10245 -3.29257,-0.0348 -3.45246,-0.48332 z m 42.28476,-11.02956 0,-11.61146 1.32911,-0.53503 c 0.73101,-0.29427 3.69681,-0.64428 6.59066,-0.77781 l 5.26156,-0.24278 -0.35148,1.87354 c -0.47186,2.51522 -0.65777,2.73307 -2.03698,2.38691 -0.65147,-0.16351 -1.93269,-0.15692 -2.84715,0.0147 l -1.66266,0.31191 0,10.09578 0,10.09578 -3.14153,0 -3.14153,0 0,-11.61147 z m 35.76514,-0.713 0,-12.32448 3.38319,0 3.38319,0 0,12.32448 0,12.32447 -3.38319,0 -3.38319,0 0,-12.32447 z m 90.37948,2.1749 0,-10.14956 -1.44994,0 c -1.39624,0 -1.44994,-0.0806 -1.44994,-2.17491 0,-2.09435 0.0537,-2.17491 1.44994,-2.17491 1.35313,0 1.44999,-0.12099 1.45071,-1.81242 0,-2.38952 1.32418,-4.93154 3.22892,-6.20326 1.67961,-1.12137 5.37226,-1.81481 7.20909,-1.35379 1.005,0.25224 1.16073,0.57609 1.16073,2.41383 0,2.08017 -0.0319,2.12251 -1.59924,2.12251 -2.17689,0 -3.20083,0.87177 -3.54983,3.02229 l -0.29386,1.81084 2.23818,0 2.23812,0 0,2.14712 0,2.14712 -2.05408,0.14861 -2.05408,0.14862 -0.13064,10.02874 -0.13064,10.02874 -3.13172,0 -3.13172,0 0,-10.14957 z M 182.09145,836.80868 c -2.53403,-1.02462 -6.39449,-2.35272 -8.5788,-2.95134 l -3.97146,-1.0884 0,-7.22765 0,-7.22765 1.81242,0.33767 c 2.32176,0.43256 9.20486,3.08461 13.07099,5.03623 l 2.99916,1.51396 0,6.75942 c 0,3.71769 -0.16312,6.74846 -0.36249,6.73507 -0.19936,-0.0134 -2.43578,-0.86268 -4.96982,-1.88731 z m 223.09922,0.66886 c -0.9579,-0.95789 -0.98796,-3.76566 -0.0487,-4.5452 1.11024,-0.92142 3.94642,-0.80405 5.06655,0.20966 1.22731,1.1107 1.27926,3.23261 0.10515,4.29516 -1.11942,1.01305 -4.12665,1.03676 -5.12303,0.0404 z m 96.17211,-0.31467 c -1.03048,-1.47122 -0.94328,-2.95307 0.23663,-4.02087 1.12014,-1.01371 3.95632,-1.13108 5.06656,-0.20966 0.93928,0.77954 0.90922,3.58731 -0.0487,4.5452 -1.18023,1.18024 -4.33997,0.99101 -5.25451,-0.31467 z"
       id="path3606" />
  </g>
</svg>
